<mxfile host="65bd71144e">
    <diagram id="9gMfZDCpUW8Rm7k-QkuG" name="Page-1">
        <mxGraphModel dx="1350" dy="1280" grid="0" gridSize="10" guides="1" tooltips="1" connect="1" arrows="1" fold="1" page="0" pageScale="1" pageWidth="850" pageHeight="1100" background="#ffffff" math="0" shadow="0">
            <root>
                <mxCell id="0"/>
                <mxCell id="1" parent="0"/>
                <mxCell id="2" value="svelte FE" style="rounded=0;whiteSpace=wrap;html=1;fillColor=#60a917;fontColor=#ffffff;strokeColor=#2D7600;" parent="1" vertex="1">
                    <mxGeometry x="518" y="603" width="120" height="60" as="geometry"/>
                </mxCell>
                <mxCell id="3" value="svelte BE" style="rounded=0;whiteSpace=wrap;html=1;fillColor=#60a917;fontColor=#ffffff;strokeColor=#2D7600;" parent="1" vertex="1">
                    <mxGeometry x="474" y="410" width="120" height="60" as="geometry"/>
                </mxCell>
                <mxCell id="47" style="edgeStyle=none;html=1;entryX=0.5;entryY=1;entryDx=0;entryDy=0;strokeColor=#000000;strokeWidth=2;fontColor=#3b1717;" parent="1" source="4" target="5" edge="1">
                    <mxGeometry relative="1" as="geometry"/>
                </mxCell>
                <mxCell id="48" style="edgeStyle=none;html=1;entryX=0.585;entryY=1.045;entryDx=0;entryDy=0;entryPerimeter=0;strokeColor=#000000;strokeWidth=2;fontColor=#3b1717;" parent="1" source="4" target="6" edge="1">
                    <mxGeometry relative="1" as="geometry"/>
                </mxCell>
                <mxCell id="4" value="fastify BE" style="rounded=0;whiteSpace=wrap;html=1;fillColor=#1ba1e2;fontColor=#ffffff;strokeColor=#006EAF;" parent="1" vertex="1">
                    <mxGeometry x="423" y="154" width="120" height="60" as="geometry"/>
                </mxCell>
                <mxCell id="5" value="redis" style="rounded=0;whiteSpace=wrap;html=1;fillColor=#d80073;fontColor=#ffffff;strokeColor=#A50040;" parent="1" vertex="1">
                    <mxGeometry x="481" y="-49" width="120" height="60" as="geometry"/>
                </mxCell>
                <mxCell id="6" value="PSQL" style="rounded=0;whiteSpace=wrap;html=1;fillColor=#6a00ff;fontColor=#ffffff;strokeColor=#3700CC;" parent="1" vertex="1">
                    <mxGeometry x="647" y="-31" width="120" height="60" as="geometry"/>
                </mxCell>
                <mxCell id="7" value="" style="endArrow=none;html=1;entryX=0.5;entryY=1;entryDx=0;entryDy=0;exitX=0.5;exitY=0;exitDx=0;exitDy=0;strokeWidth=2;strokeColor=#000000;" parent="1" source="2" target="3" edge="1">
                    <mxGeometry width="50" height="50" relative="1" as="geometry">
                        <mxPoint x="471" y="595" as="sourcePoint"/>
                        <mxPoint x="521" y="545" as="targetPoint"/>
                    </mxGeometry>
                </mxCell>
                <mxCell id="8" value="" style="endArrow=none;html=1;exitX=0.5;exitY=0;exitDx=0;exitDy=0;strokeWidth=2;strokeColor=#000000;entryX=0.442;entryY=0.99;entryDx=0;entryDy=0;entryPerimeter=0;" parent="1" source="3" target="4" edge="1">
                    <mxGeometry width="50" height="50" relative="1" as="geometry">
                        <mxPoint x="480" y="426" as="sourcePoint"/>
                        <mxPoint x="477" y="289" as="targetPoint"/>
                    </mxGeometry>
                </mxCell>
                <UserObject label="Creates Refresh&lt;br&gt;creates access&lt;br&gt;creates csrf&lt;br&gt;refreshes tokens&lt;br&gt;verifies&lt;br&gt;sends data" placeholders="1" name="Variable" id="11">
                    <mxCell style="text;html=1;strokeColor=none;fillColor=none;align=center;verticalAlign=middle;whiteSpace=wrap;overflow=hidden;fontColor=#3b1717;" parent="1" vertex="1">
                        <mxGeometry x="563" y="202" width="159" height="134" as="geometry"/>
                    </mxCell>
                </UserObject>
                <mxCell id="20" style="edgeStyle=none;html=1;entryX=0.55;entryY=0.999;entryDx=0;entryDy=0;entryPerimeter=0;strokeColor=#000000;strokeWidth=2;fontColor=#3b1717;" parent="1" source="13" target="17" edge="1">
                    <mxGeometry relative="1" as="geometry"/>
                </mxCell>
                <mxCell id="13" value="sends refresh&amp;nbsp;&lt;br&gt;sends access&lt;br&gt;cookies" style="rounded=1;whiteSpace=wrap;html=1;fontColor=#3b1717;labelBackgroundColor=none;fillColor=none;" parent="1" vertex="1">
                    <mxGeometry x="140" y="566" width="120" height="60" as="geometry"/>
                </mxCell>
                <mxCell id="44" style="edgeStyle=none;html=1;strokeColor=#000000;strokeWidth=2;fontColor=#3b1717;" parent="1" source="14" target="24" edge="1">
                    <mxGeometry relative="1" as="geometry"/>
                </mxCell>
                <mxCell id="14" value="/verify&lt;br&gt;returns decoded + user info" style="rounded=1;whiteSpace=wrap;html=1;fontColor=#3b1717;labelBackgroundColor=none;fillColor=none;" parent="1" vertex="1">
                    <mxGeometry x="-143" y="-143" width="120" height="112" as="geometry"/>
                </mxCell>
                <mxCell id="43" style="edgeStyle=none;html=1;entryX=0.546;entryY=0.021;entryDx=0;entryDy=0;entryPerimeter=0;strokeColor=#000000;strokeWidth=2;fontColor=#3b1717;" parent="1" target="24" edge="1">
                    <mxGeometry relative="1" as="geometry">
                        <mxPoint x="149" y="-42" as="sourcePoint"/>
                    </mxGeometry>
                </mxCell>
                <mxCell id="15" value="/tours&lt;br&gt;returns data&lt;br&gt;" style="rounded=1;whiteSpace=wrap;html=1;fontColor=#3b1717;labelBackgroundColor=none;fillColor=none;" parent="1" vertex="1">
                    <mxGeometry x="116" y="-126" width="120" height="78" as="geometry"/>
                </mxCell>
                <mxCell id="37" style="edgeStyle=none;html=1;entryX=0.212;entryY=1.021;entryDx=0;entryDy=0;strokeColor=#000000;strokeWidth=2;fontColor=#3b1717;entryPerimeter=0;exitX=0.18;exitY=0.013;exitDx=0;exitDy=0;exitPerimeter=0;" parent="1" source="17" target="33" edge="1">
                    <mxGeometry relative="1" as="geometry"/>
                </mxCell>
                <mxCell id="69" style="edgeStyle=none;html=1;entryX=1;entryY=1;entryDx=0;entryDy=0;strokeColor=#000033;exitX=0.982;exitY=0.035;exitDx=0;exitDy=0;exitPerimeter=0;" edge="1" parent="1" source="17" target="57">
                    <mxGeometry relative="1" as="geometry">
                        <mxPoint x="268" y="394" as="sourcePoint"/>
                    </mxGeometry>
                </mxCell>
                <mxCell id="17" value="reads cookies,&amp;nbsp;&lt;br&gt;sends them as body to server.&lt;br&gt;if response not ok,&lt;br&gt;retry and beforeRetry(refresh)" style="rounded=1;whiteSpace=wrap;html=1;fontColor=#3b1717;labelBackgroundColor=none;fillColor=none;" parent="1" vertex="1">
                    <mxGeometry x="83" y="391" width="266" height="114" as="geometry"/>
                </mxCell>
                <mxCell id="30" style="edgeStyle=none;html=1;strokeColor=#000000;strokeWidth=2;fontColor=#3b1717;" parent="1" source="24" target="29" edge="1">
                    <mxGeometry relative="1" as="geometry"/>
                </mxCell>
                <mxCell id="24" value="gets tokens + data&lt;br&gt;if ok returns data&lt;br&gt;or page.&lt;br&gt;else relogin.&lt;br&gt;always checks for refresh + access to change" style="rounded=1;whiteSpace=wrap;html=1;fontColor=#3b1717;labelBackgroundColor=none;fillColor=none;" parent="1" vertex="1">
                    <mxGeometry x="-101" y="384" width="120" height="131" as="geometry"/>
                </mxCell>
                <mxCell id="29" value="gets data" style="rounded=1;whiteSpace=wrap;html=1;fontColor=#3b1717;labelBackgroundColor=none;fillColor=none;" parent="1" vertex="1">
                    <mxGeometry x="-33" y="566" width="120" height="60" as="geometry"/>
                </mxCell>
                <mxCell id="38" style="edgeStyle=none;html=1;entryX=0.5;entryY=1;entryDx=0;entryDy=0;strokeColor=#000000;strokeWidth=2;fontColor=#3b1717;" parent="1" source="33" target="35" edge="1">
                    <mxGeometry relative="1" as="geometry"/>
                </mxCell>
                <mxCell id="42" style="edgeStyle=none;html=1;entryX=0.546;entryY=1.031;entryDx=0;entryDy=0;entryPerimeter=0;strokeColor=#000000;strokeWidth=2;fontColor=#3b1717;" parent="1" source="35" target="14" edge="1">
                    <mxGeometry relative="1" as="geometry"/>
                </mxCell>
                <mxCell id="68" style="edgeStyle=none;html=1;entryX=0.436;entryY=1.017;entryDx=0;entryDy=0;entryPerimeter=0;strokeColor=#000033;" edge="1" parent="1" source="35" target="15">
                    <mxGeometry relative="1" as="geometry"/>
                </mxCell>
                <mxCell id="35" value="ok" style="rounded=1;whiteSpace=wrap;html=1;fontColor=#3b1717;labelBackgroundColor=none;fillColor=none;" parent="1" vertex="1">
                    <mxGeometry x="184" y="29" width="57" height="25" as="geometry"/>
                </mxCell>
                <mxCell id="66" style="edgeStyle=none;html=1;strokeColor=#000033;exitX=0.398;exitY=1.004;exitDx=0;exitDy=0;exitPerimeter=0;entryX=0.991;entryY=0.064;entryDx=0;entryDy=0;entryPerimeter=0;" edge="1" parent="1" source="63" target="17">
                    <mxGeometry relative="1" as="geometry">
                        <mxPoint x="357.0250195578476" y="282" as="sourcePoint"/>
                        <mxPoint x="333" y="385" as="targetPoint"/>
                    </mxGeometry>
                </mxCell>
                <mxCell id="45" value="REQUEST" style="rounded=1;whiteSpace=wrap;html=1;fontColor=#000000;labelBackgroundColor=none;fillColor=#fa6800;strokeColor=#C73500;" parent="1" vertex="1">
                    <mxGeometry x="153.5" y="640" width="79" height="30" as="geometry"/>
                </mxCell>
                <mxCell id="46" value="RESPONSE" style="rounded=1;whiteSpace=wrap;html=1;fontColor=#ffffff;labelBackgroundColor=none;fillColor=#76608a;strokeColor=#432D57;" parent="1" vertex="1">
                    <mxGeometry x="-20" y="644" width="79" height="30" as="geometry"/>
                </mxCell>
                <mxCell id="65" style="edgeStyle=none;html=1;strokeColor=#000000;strokeWidth=2;fontColor=#3b1717;" parent="1" source="33" target="63" edge="1">
                    <mxGeometry relative="1" as="geometry"/>
                </mxCell>
                <mxCell id="33" value="authorize middleware&lt;br&gt;reads body or header for access token&lt;br&gt;throws error if not" style="rounded=1;whiteSpace=wrap;html=1;fontColor=#3b1717;labelBackgroundColor=none;fillColor=none;" parent="1" vertex="1">
                    <mxGeometry x="116" y="97" width="251" height="47" as="geometry"/>
                </mxCell>
                <mxCell id="54" value="unauthorized" style="rounded=1;whiteSpace=wrap;html=1;fontColor=#ffffff;labelBackgroundColor=none;fillColor=#e51400;strokeColor=#B20000;" parent="1" vertex="1">
                    <mxGeometry x="339" y="586" width="96" height="25" as="geometry"/>
                </mxCell>
                <mxCell id="70" style="edgeStyle=none;html=1;strokeColor=#000033;entryX=0.5;entryY=0;entryDx=0;entryDy=0;" edge="1" parent="1" source="57" target="72">
                    <mxGeometry relative="1" as="geometry">
                        <mxPoint x="246" y="341" as="targetPoint"/>
                    </mxGeometry>
                </mxCell>
                <mxCell id="75" style="edgeStyle=none;html=1;entryX=0.5;entryY=0;entryDx=0;entryDy=0;strokeColor=#000033;" edge="1" parent="1" source="57" target="71">
                    <mxGeometry relative="1" as="geometry"/>
                </mxCell>
                <mxCell id="57" value="/refresh&lt;br&gt;refresh all tokens + csrf" style="rounded=1;whiteSpace=wrap;html=1;fontColor=#3b1717;labelBackgroundColor=none;fillColor=none;" parent="1" vertex="1">
                    <mxGeometry x="247" y="214" width="120" height="60" as="geometry"/>
                </mxCell>
                <mxCell id="63" value="not ok" style="rounded=1;whiteSpace=wrap;html=1;fontColor=#3b1717;labelBackgroundColor=none;fillColor=none;" parent="1" vertex="1">
                    <mxGeometry x="423" y="247" width="57" height="40" as="geometry"/>
                </mxCell>
                <mxCell id="76" style="edgeStyle=none;html=1;strokeColor=#000033;" edge="1" parent="1" source="71" target="54">
                    <mxGeometry relative="1" as="geometry"/>
                </mxCell>
                <mxCell id="71" value="not ok" style="rounded=1;whiteSpace=wrap;html=1;fontColor=#3b1717;labelBackgroundColor=none;fillColor=none;" vertex="1" parent="1">
                    <mxGeometry x="285" y="300" width="57" height="40" as="geometry"/>
                </mxCell>
                <mxCell id="74" style="edgeStyle=none;html=1;entryX=0.459;entryY=0.006;entryDx=0;entryDy=0;entryPerimeter=0;strokeColor=#000033;" edge="1" parent="1" source="72" target="17">
                    <mxGeometry relative="1" as="geometry"/>
                </mxCell>
                <mxCell id="72" value="ok,&lt;br&gt;must send back to client new tokens[&lt;br&gt;retry request" style="rounded=1;whiteSpace=wrap;html=1;fontColor=#3b1717;labelBackgroundColor=none;fillColor=none;" vertex="1" parent="1">
                    <mxGeometry x="163" y="300" width="113" height="59" as="geometry"/>
                </mxCell>
            </root>
        </mxGraphModel>
    </diagram>
</mxfile>
